# xmcd CD database file
#
# Track frame offsets:
#	150
#	23384
#	40854
#	64028
#	87382
#	105261
#	123956
#	140956
#
# Disc length: 2359 seconds
#
# Revision: 0
# Processed by: cddbd v1.5PL3 Copyright (c) Steve Scherf et al.
# Submitted via: CDex 1.51
#
DISCID=60093508
DTITLE=Cesare Regazzoni - Colore Incanto
DYEAR=1900
DGENRE=New Age
TTITLE0=Un Cielo Grande
TTITLE1=Al Centro Un Silenzio
TTITLE2=I Colori Del Vento
TTITLE3=Chiudere Gli Occhi
TTITLE4=Solo Suggestione
TTITLE5=Preludio Incantevole
TTITLE6=L'Anima Si è Seduta 
TTITLE7=Senza Avere Fretta Di Vivere
EXTD=
EXTT0=
EXTT1=
EXTT2=
EXTT3=
EXTT4=
EXTT5=
EXTT6=
EXTT7=
PLAYORDER=
